<?xml version="1.0" standalone="no"?>
<!DOCTYPE svg PUBLIC "-//W3C//DTD SVG 20010904//EN"
 "http://www.w3.org/TR/2001/REC-SVG-20010904/DTD/svg10.dtd">
<svg version="1.0" xmlns="http://www.w3.org/2000/svg"
 width="500.000000pt" height="500.000000pt" viewBox="0 0 500.000000 500.000000"
 preserveAspectRatio="xMidYMid meet">

<g transform="translate(0.000000,500.000000) scale(0.100000,-0.100000)"
fill="#000000" stroke="none">
<path d="M0 2500 l0 -2500 2500 0 2500 0 0 2500 0 2500 -2500 0 -2500 0 0
-2500z m2881 760 c57 -6 157 -25 223 -42 l118 -31 -4 -63 c-2 -35 -7 -66 -10
-69 -3 -3 -59 27 -124 68 -151 93 -186 107 -278 107 -226 0 -431 -126 -525
-322 -21 -46 -47 -116 -57 -155 l-17 -73 -92 0 c-50 0 -94 3 -97 6 -10 9 23
117 57 189 108 222 324 359 610 385 44 4 83 8 86 9 4 0 53 -4 110 -9z m-1336
-35 c39 -8 100 -25 138 -37 l67 -21 0 -68 c0 -38 -3 -69 -6 -69 -4 0 -30 15
-58 34 -242 160 -496 197 -685 102 -69 -36 -150 -113 -194 -187 -36 -62 -79
-184 -92 -261 -5 -34 -9 -38 -35 -38 l-30 0 0 -85 0 -85 205 0 c130 0 205 -4
205 -10 0 -6 -75 -10 -205 -10 l-205 0 0 -84 0 -85 37 -3 c36 -3 38 -5 63 -73
45 -122 88 -191 164 -263 39 -37 95 -79 123 -95 68 -36 191 -67 268 -67 66 0
194 29 244 55 l31 16 0 214 0 215 100 0 100 0 0 -209 0 -209 -67 -26 c-505
-190 -974 -51 -1147 341 -71 162 -82 387 -27 563 72 230 284 403 558 455 98
18 347 13 448 -10z m2905 -70 c0 -36 -3 -65 -7 -65 -5 0 -44 12 -87 26 -124
39 -293 64 -514 74 -112 6 -208 8 -213 4 -5 -3 -9 -117 -9 -260 l0 -254 -95 0
-95 0 0 270 0 270 510 0 510 0 0 -65z m-2851 -574 c8 -5 -4 -7 -32 -4 -39 5
-49 2 -71 -20 -32 -32 -33 -51 -1 -82 40 -41 115 -30 115 16 0 12 -10 19 -32
22 -32 4 -32 4 5 5 35 2 37 0 37 -28 0 -54 -90 -71 -135 -25 -51 50 -13 125
62 125 21 0 44 -4 52 -9z m101 -66 c0 -41 -3 -75 -7 -75 -5 0 -7 34 -5 75 2
41 5 75 8 75 2 0 4 -34 4 -75z m99 10 c18 -36 36 -65 40 -65 3 0 21 29 40 65
18 36 36 64 38 61 8 -7 -70 -147 -80 -143 -12 4 -90 147 -80 147 4 0 23 -29
42 -65z m254 58 c-62 -4 -63 -4 -63 -33 0 -30 1 -30 58 -32 l57 -2 -57 -3
c-56 -4 -58 -5 -58 -33 0 -29 0 -29 68 -33 l67 -3 -72 -2 -73 -2 0 75 0 75 68
-2 67 -2 -62 -3z m200 0 c-62 -4 -63 -4 -63 -33 0 -29 1 -30 53 -32 l52 -2
-52 -3 c-51 -4 -53 -5 -53 -33 0 -29 1 -29 63 -33 l62 -3 -70 -2 -70 -2 3 75
4 75 66 -2 67 -2 -62 -3z m220 0 l-33 -4 0 -70 c0 -39 -4 -69 -10 -69 -6 0
-10 30 -10 69 l0 70 -32 4 c-18 2 1 4 42 4 41 0 60 -2 43 -4z m162 -63 l64 0
4 38 c2 20 4 1 4 -43 0 -44 -2 -63 -4 -42 l-4 37 -64 0 -64 0 -4 -37 c-2 -21
-4 -2 -4 42 0 44 2 63 4 43 l4 -38 64 0z m274 61 c8 -5 -4 -7 -32 -4 -39 5
-49 2 -71 -20 -14 -14 -26 -33 -26 -42 0 -9 12 -28 26 -42 22 -22 32 -25 70
-20 24 2 41 1 38 -4 -3 -5 -25 -9 -50 -9 -34 0 -51 6 -69 25 -51 50 -13 125
62 125 21 0 44 -4 52 -9z m185 -62 c21 -38 36 -73 33 -75 -3 -3 -10 4 -17 15
-9 17 -20 21 -65 21 -45 0 -55 -3 -60 -20 -3 -11 -11 -20 -17 -20 -5 0 1 19
15 43 13 23 32 57 41 75 9 17 20 32 24 32 4 0 25 -32 46 -71z m224 59 c17 -17
15 -45 -4 -56 -15 -8 -15 -12 0 -40 9 -17 24 -33 33 -35 14 -4 14 -5 -4 -6
-14 -1 -28 10 -42 34 -18 31 -25 35 -60 35 -39 0 -40 -1 -44 -37 -2 -21 -4 -3
-5 40 l-2 77 58 0 c32 0 63 -5 70 -12z m165 5 c-62 -4 -63 -4 -63 -33 0 -29 1
-30 53 -32 l52 -2 -52 -3 c-51 -4 -53 -5 -53 -33 0 -29 1 -29 63 -33 l62 -3
-70 -2 -70 -2 3 75 4 75 66 -2 67 -2 -62 -3z m877 -83 c0 -6 -75 -10 -205 -10
-130 0 -205 4 -205 10 0 6 75 10 205 10 130 0 205 -4 205 -10z m-2107 -251
c58 -155 179 -291 322 -359 89 -42 139 -56 235 -66 85 -8 138 12 282 107 59
40 110 70 112 68 2 -2 7 -34 11 -71 l7 -67 -53 -15 c-181 -51 -400 -68 -548
-42 -192 34 -302 88 -422 207 -59 58 -86 95 -118 160 -22 46 -44 99 -47 117
l-6 32 99 0 100 0 26 -71z m1367 -164 l0 -235 129 0 c283 0 560 41 714 105 15
6 17 0 17 -64 l0 -71 -525 0 -525 0 0 250 0 250 95 0 95 0 0 -235z"/>
<path d="M3021 2530 l-22 -40 45 0 c25 0 46 2 46 5 0 11 -34 75 -40 75 -3 0
-16 -18 -29 -40z"/>
<path d="M3200 2549 c0 -30 0 -30 51 -27 37 2 55 8 63 21 15 24 -7 37 -66 37
-47 0 -48 -1 -48 -31z"/>
</g>
</svg>
